ffmpeg version N-94377-g817235b195 Copyright (c) 2000-2019 the FFmpeg developers
  built with gcc 9.1.1 (GCC) 20190716
  configuration: --enable-gpl --enable-version3 --enable-sdl2 --enable-fontconfig --enable-gnutls --enable-iconv --enable-libass --enable-libdav1d --enable-libbluray --enable-libfreetype --enable-libmp3lame --enable-libopencore-amrnb --enable-libopencore-amrwb --enable-libopenjpeg --enable-libopus --enable-libshine --enable-libsnappy --enable-libsoxr --enable-libtheora --enable-libtwolame --enable-libvpx --enable-libwavpack --enable-libwebp --enable-libx264 --enable-libx265 --enable-libxml2 --enable-libzimg --enable-lzma --enable-zlib --enable-gmp --enable-libvidstab --enable-libvorbis --enable-libvo-amrwbenc --enable-libmysofa --enable-libspeex --enable-libxvid --enable-libaom --enable-libmfx --enable-amf --enable-ffnvcodec --enable-cuvid --enable-d3d11va --enable-nvenc --enable-nvdec --enable-dxva2 --enable-avisynth --enable-libopenmpt
  libavutil      56. 32.100 / 56. 32.100
  libavcodec     58. 55.100 / 58. 55.100
  libavformat    58. 30.100 / 58. 30.100
  libavdevice    58.  9.100 / 58.  9.100
  libavfilter     7. 58.100 /  7. 58.100
  libswscale      5.  6.100 /  5.  6.100
  libswresample   3.  6.100 /  3.  6.100
  libpostproc    55.  6.100 / 55.  6.100
Input #0, matroska,webm, from '1565771970-3-46.webm':
  Metadata:
    encoder         : QTmuxingAppLibWebM-0.0.1
  Duration: N/A, start: -0.001000, bitrate: N/A
    Stream #0:0(eng): Video: vp8, yuv420p(progressive), 640x360, SAR 1:1 DAR 16:9, 1k tbr, 1k tbn, 1k tbc (default)
    Stream #0:1(eng): Audio: opus, 48000 Hz, mono, fltp (default)
Stream mapping:
  Stream #0:0 -> #0:0 (vp8 (native) -> vp9 (libvpx-vp9))
  Stream #0:1 -> #0:1 (opus (native) -> opus (libopus))
Press [q] to stop, [?] for help
[libopus @ 0000016fb2926dc0] No bit rate set. Defaulting to 64000 bps.
frame=    0 fps=0.0 q=0.0 size=       0kB time=-577014:32:22.77 bitrate=  -0.0kbits/s speed=N/A    [libvpx-vp9 @ 0000016fb2925280] v1.8.0-606-gd749bc7b3
Output #0, webm, to 'uploads/video/1565771970-3-46.webm':
  Metadata:
    encoder         : Lavf58.30.100
    Stream #0:0(eng): Video: vp9 (libvpx-vp9), yuv420p, 640x360 [SAR 1:1 DAR 16:9], q=-1--1, 1k fps, 1k tbn, 1k tbc (default)
    Metadata:
      encoder         : Lavc58.55.100 libvpx-vp9
    Side data:
      cpb: bitrate max/min/avg: 0/0/0 buffer size: 0 vbv_delay: -1
    Stream #0:1(eng): Audio: opus (libopus), 48000 Hz, mono, flt, 64 kb/s (default)
    Metadata:
      encoder         : Lavc58.55.100 libopus
frame=    1 fps=0.7 q=0.0 size=       1kB time=00:00:00.14 bitrate=  46.9kbits/s speed=0.102x    frame=   25 fps= 13 q=0.0 size=       1kB time=00:00:00.94 bitrate=   7.0kbits/s speed=0.49x    frame=   50 fps= 21 q=0.0 size=       1kB time=00:00:01.76 bitrate=   3.8kbits/s speed=0.724x    frame=   86 fps= 29 q=0.0 size=       1kB time=00:00:02.96 bitrate=   2.2kbits/s speed=1.01x    frame=  123 fps= 35 q=0.0 size=       1kB time=00:00:06.54 bitrate=   1.0kbits/s speed=1.88x    frame=  161 fps= 40 q=0.0 size=     304kB time=00:00:08.22 bitrate= 302.7kbits/s speed=2.05x    frame=  216 fps= 48 q=0.0 size=     304kB time=00:00:10.08 bitrate= 246.8kbits/s speed=2.23x    frame=  269 fps= 54 q=0.0 size=     539kB time=00:00:13.68 bitrate= 322.7kbits/s speed=2.72x    frame=  349 fps= 63 q=0.0 size=     571kB time=00:00:16.66 bitrate= 280.9kbits/s speed=3.02x    frame=  415 fps= 69 q=0.0 size=     829kB time=00:00:21.32 bitrate= 318.4kbits/s speed=3.53x    frame=  482 fps= 74 q=0.0 size=     829kB time=00:00:23.56 bitrate= 288.2kbits/s speed= 3.6x    frame=  522 fps= 73 q=0.0 size=    1071kB time=00:00:24.90 bitrate= 352.5kbits/s speed=3.48x    frame=  550 fps= 72 q=0.0 size=    1103kB time=00:00:25.84 bitrate= 349.8kbits/s speed=3.37x    frame=  592 fps= 72 q=0.0 size=    1103kB time=00:00:27.56 bitrate= 328.0kbits/s speed=3.37x    frame=  621 fps= 71 q=0.0 size=    1103kB time=00:00:30.82 bitrate= 293.3kbits/s speed=3.53x    frame=  669 fps= 72 q=0.0 size=    1359kB time=00:00:32.60 bitrate= 341.4kbits/s speed=3.53x    frame=  703 fps= 72 q=0.0 size=    1359kB time=00:00:33.74 bitrate= 329.9kbits/s speed=3.46x    frame=  743 fps= 72 q=0.0 size=    1359kB time=00:00:35.04 bitrate= 317.6kbits/s speed=3.41x    frame=  805 fps= 75 q=0.0 size=    1612kB time=00:00:39.42 bitrate= 335.0kbits/s speed=3.66x    frame=  876 fps= 78 q=0.0 size=    1818kB time=00:00:42.70 bitrate= 348.8kbits/s speed=3.78x    frame=  920 fps= 78 q=0.0 size=    1818kB time=00:00:44.16 bitrate= 337.2kbits/s speed=3.75x    frame=  968 fps= 79 q=0.0 size=    1924kB time=00:00:45.74 bitrate= 344.6kbits/s speed=3.71x    frame= 1013 fps= 79 q=0.0 size=    1924kB time=00:00:49.54 bitrate= 318.2kbits/s speed=3.86x    frame= 1050 fps= 79 q=0.0 size=    2178kB time=00:00:51.74 bitrate= 344.9kbits/s speed=3.88x    frame= 1080 fps= 78 q=0.0 size=    2178kB time=00:00:53.20 bitrate= 335.4kbits/s speed=3.83x    frame= 1123 fps= 78 q=0.0 size=    2178kB time=00:00:55.12 bitrate= 323.7kbits/s speed=3.83x    frame= 1165 fps= 78 q=0.0 size=    2381kB time=00:00:56.66 bitrate= 344.3kbits/s speed= 3.8x    frame= 1202 fps= 78 q=0.0 size=    2434kB time=00:00:57.90 bitrate= 344.3kbits/s speed=3.76x    frame= 1245 fps= 78 q=0.0 size=    2434kB time=00:00:59.32 bitrate= 336.1kbits/s speed=3.73x    frame= 1292 fps= 79 q=0.0 size=    2434kB time=00:01:00.98 bitrate= 326.9kbits/s speed=3.72x    frame= 1349 fps= 80 q=0.0 size=    2650kB time=00:01:05.68 bitrate= 330.6kbits/s speed=3.88x    frame= 1407 fps= 81 q=0.0 size=    2818kB time=00:01:07.62 bitrate= 341.4kbits/s speed=3.88x    frame= 1445 fps= 81 q=0.0 size=    2935kB time=00:01:08.88 bitrate= 349.0kbits/s speed=3.84x    frame= 1509 fps= 82 q=0.0 size=    2935kB time=00:01:12.96 bitrate= 329.5kbits/s speed=3.96x    frame= 1580 fps= 83 q=0.0 size=    3200kB time=00:01:15.88 bitrate= 345.5kbits/s speed=   4x    frame= 1629 fps= 84 q=0.0 size=    3200kB time=00:01:17.54 bitrate= 338.1kbits/s speed=3.98x    frame= 1688 fps= 85 q=0.0 size=    3200kB time=00:01:19.54 bitrate= 329.6kbits/s speed=3.98x    frame= 1764 fps= 86 q=0.0 size=    3404kB time=00:01:22.06 bitrate= 339.8kbits/s speed=4.01x    frame= 1855 fps= 88 q=0.0 size=    3620kB time=00:01:25.08 bitrate= 348.6kbits/s speed=4.06x    frame= 1945 fps= 90 q=0.0 size=    3824kB time=00:01:28.04 bitrate= 355.9kbits/s speed=4.09x    frame= 2002 fps= 91 q=0.0 size=    3824kB time=00:01:30.00 bitrate= 348.1kbits/s speed=4.09x    frame= 2075 fps= 92 q=0.0 size=    4058kB time=00:01:32.44 bitrate= 359.6kbits/s speed=4.11x    frame= 2166 fps= 94 q=0.0 size=    4058kB time=00:01:35.48 bitrate= 348.1kbits/s speed=4.15x    frame= 2252 fps= 96 q=0.0 size=    4319kB time=00:01:38.34 bitrate= 359.8kbits/s speed=4.18x    frame= 2318 fps= 97 q=0.0 size=    4319kB time=00:01:41.82 bitrate= 347.5kbits/s speed=4.24x    frame= 2390 fps= 97 q=0.0 size=    4586kB time=00:01:44.92 bitrate= 358.1kbits/s speed=4.28x    frame= 2465 fps= 99 q=0.0 size=    4856kB time=00:01:47.46 bitrate= 370.2kbits/s speed= 4.3x    frame= 2551 fps=100 q=0.0 size=    4856kB time=00:01:50.32 bitrate= 360.6kbits/s speed=4.32x    frame= 2627 fps=101 q=0.0 size=    5103kB time=00:01:55.62 bitrate= 361.6kbits/s speed=4.44x    frame= 2692 fps=101 q=0.0 size=    5293kB time=00:01:57.86 bitrate= 367.9kbits/s speed=4.44x    frame= 2747 fps=102 q=0.0 size=    5417kB time=00:02:01.54 bitrate= 365.1kbits/s speed= 4.5x    frame= 2784 fps=101 q=0.0 size=    5417kB time=00:02:03.32 bitrate= 359.8kbits/s speed=4.48x    frame= 2818 fps=100 q=0.0 size=    5616kB time=00:02:04.46 bitrate= 369.7kbits/s speed=4.44x    frame= 2882 fps=101 q=0.0 size=    5705kB time=00:02:06.76 bitrate= 368.7kbits/s dup=0 drop=2 speed=4.44x    frame= 2946 fps=101 q=0.0 size=    5705kB time=00:02:09.04 bitrate= 362.2kbits/s dup=0 drop=2 speed=4.44x    frame= 2973 fps=101 q=0.0 Lsize=    6085kB time=00:02:09.84 bitrate= 383.9kbits/s dup=0 drop=2 speed=4.41x    
video:4897kB audio:1122kB subtitle:0kB other streams:0kB global headers:0kB muxing overhead: 1.101506%
